<svg xmlns="http://www.w3.org/2000/svg" version="1.1" xmlns:xlink="http://www.w3.org/1999/xlink" xmlns:svgjs="http://svgjs.dev/svgjs" width="1500" height="1500" viewBox="0 0 1500 1500"><rect width="1500" height="1500" fill="#ffffff"></rect><g transform="matrix(0.6666666666666666,0,0,0.6666666666666666,250.20901358842485,648.714610827733)"><svg viewBox="0 0 340 69" data-background-color="#ffffff" preserveAspectRatio="xMidYMid meet" height="304" width="1500" xmlns="http://www.w3.org/2000/svg" xmlns:xlink="http://www.w3.org/1999/xlink"><g id="tight-bounds" transform="matrix(1,0,0,1,-0.07106462006444758,-0.01632309431045087)"><svg viewBox="0 0 340.1421292401289 69.03264618862087" height="69.03264618862087" width="340.1421292401289"><g><svg viewBox="0 0 340.1421292401289 69.03264618862087" height="69.03264618862087" width="340.1421292401289"><g><svg viewBox="0 0 340.1421292401289 69.03264618862087" height="69.03264618862087" width="340.1421292401289"><g id="textblocktransform"><svg viewBox="0 0 340.1421292401289 69.03264618862087" height="69.03264618862087" width="340.1421292401289" id="textblock"><g><svg viewBox="0 0 340.1421292401289 51.3715" height="51.3715" width="340.1421292401289"><g><svg><g></g><g></g></svg></g><g><svg><g></g><g><svg></svg></g></svg></g><g id="text-0"><svg viewBox="0 0 340.1421292401289 51.3715" height="51.3715" width="340.1421292401289"><g transform="matrix(1,0,0,1,0,9.38575)"><svg width="143.79999999999998" viewBox="2.7 -31.05 143.79000000000002 31.7" height="31.7" data-palette-color="#398378"><path d="M12.85-2.75L12.85-2.75 12.85-2.75Q16.2-2.75 17.93-4.28 19.65-5.8 19.65-8.2L19.65-8.2Q19.65-10.25 18.32-11.6 17-12.95 14.15-13.75L14.15-13.75 9.8-15.05Q7.7-15.7 6.15-16.73 4.6-17.75 3.78-19.28 2.95-20.8 2.95-22.85L2.95-22.85Q2.95-26.7 5.75-28.88 8.55-31.05 13.2-31.05L13.2-31.05Q15.9-31.05 18.03-30.48 20.15-29.9 21.38-29 22.6-28.1 22.6-27.1L22.6-27.1Q22.6-26.45 22.25-25.93 21.9-25.4 21.35-25.1L21.35-25.1Q20.1-26.1 17.98-26.85 15.85-27.6 13.35-27.6L13.35-27.6Q10.45-27.6 8.75-26.33 7.05-25.05 7.05-22.85L7.05-22.85Q7.05-21.1 8.28-20 9.5-18.9 12.25-18.1L12.25-18.1 15.3-17.2Q19.25-16.1 21.53-14 23.8-11.9 23.8-8.2L23.8-8.2Q23.8-4.25 20.93-1.8 18.05 0.65 12.85 0.65L12.85 0.65Q9.8 0.65 7.53-0.03 5.25-0.7 3.98-1.73 2.7-2.75 2.7-3.75L2.7-3.75Q2.7-4.6 3.23-5.18 3.75-5.75 4.45-6L4.45-6Q5.6-4.9 7.7-3.83 9.8-2.75 12.85-2.75ZM48.15-11.35L31.35-9 31.15-12.15 46.25-14.2Q46.05-16.95 44.35-18.73 42.65-20.5 39.65-20.5L39.65-20.5Q36.55-20.5 34.52-18.28 32.5-16.05 32.5-11.9L32.5-11.9 32.5-10.8Q32.85-6.8 35.12-4.73 37.4-2.65 41.35-2.65L41.35-2.65Q43.45-2.65 45.15-3.35 46.85-4.05 47.85-4.85L47.85-4.85Q48.4-4.5 48.72-4.03 49.05-3.55 49.05-2.95L49.05-2.95Q49.05-2 47.97-1.18 46.9-0.35 45.12 0.15 43.35 0.65 41.15 0.65L41.15 0.65Q37.3 0.65 34.47-0.75 31.65-2.15 30.12-4.93 28.6-7.7 28.6-11.7L28.6-11.7Q28.6-14.55 29.42-16.78 30.25-19 31.72-20.55 33.2-22.1 35.25-22.93 37.3-23.75 39.7-23.75L39.7-23.75Q42.75-23.75 45.07-22.45 47.4-21.15 48.72-18.82 50.05-16.5 50.05-13.5L50.05-13.5Q50.05-12.4 49.55-11.93 49.05-11.45 48.15-11.35L48.15-11.35ZM66.55-20.4L66.55-20.4 66.55-20.4Q63.15-20.4 60.9-18.1 58.65-15.8 58.65-11.5L58.65-11.5Q58.65-7.25 60.82-4.95 63-2.65 66.55-2.65L66.55-2.65Q68.65-2.65 70.05-3.23 71.45-3.8 72.55-4.55L72.55-4.55Q73.09-4.25 73.45-3.8 73.8-3.35 73.8-2.7L73.8-2.7Q73.8-1.3 71.72-0.33 69.65 0.65 66.55 0.65L66.55 0.65Q63.1 0.65 60.37-0.68 57.65-2 56.1-4.7 54.55-7.4 54.55-11.5L54.55-11.5Q54.55-15.55 56.15-18.28 57.75-21 60.47-22.38 63.2-23.75 66.45-23.75L66.45-23.75Q69.55-23.75 71.57-22.7 73.59-21.65 73.59-20.3L73.59-20.3Q73.59-19.7 73.25-19.25 72.9-18.8 72.34-18.55L72.34-18.55Q71.25-19.3 69.92-19.85 68.59-20.4 66.55-20.4ZM79.74-8.45L79.74-8.45 79.74-13 83.74-13 83.74-8.65Q83.74-5.45 85.44-4.05 87.14-2.65 90.14-2.65L90.14-2.65Q92.14-2.65 93.54-3.08 94.94-3.5 95.74-3.95L95.74-3.95 95.74-13 99.74-13 99.74-4.1Q99.74-3.05 99.47-2.43 99.19-1.8 98.14-1.2L98.14-1.2Q97.04-0.55 94.99 0.05 92.94 0.65 90.09 0.65L90.09 0.65Q86.79 0.65 84.47-0.33 82.14-1.3 80.94-3.33 79.74-5.35 79.74-8.45ZM99.74-21.5L99.74-10.4 95.74-10.4 95.74-23Q95.99-23.1 96.52-23.23 97.04-23.35 97.59-23.35L97.59-23.35Q98.69-23.35 99.22-22.93 99.74-22.5 99.74-21.5L99.74-21.5ZM83.74-21.5L83.74-10.4 79.74-10.4 79.74-23Q79.99-23.1 80.52-23.23 81.04-23.35 81.64-23.35L81.64-23.35Q82.69-23.35 83.22-22.93 83.74-22.5 83.74-21.5L83.74-21.5ZM111.24-18.8L111.24-18.8 111.24-10.9 107.24-10.9 107.24-18.5Q107.24-19.65 107.67-20.33 108.09-21 109.09-21.65L109.09-21.65Q110.39-22.5 112.64-23.13 114.89-23.75 117.64-23.75L117.64-23.75Q121.64-23.75 121.64-21.75L121.64-21.75Q121.64-21.25 121.49-20.83 121.34-20.4 121.09-20.1L121.09-20.1Q120.59-20.2 119.79-20.3 118.99-20.4 118.19-20.4L118.19-20.4Q115.89-20.4 114.14-19.93 112.39-19.45 111.24-18.8ZM107.24-1.55L107.24-13.2 111.24-12.6 111.24-0.1Q110.99 0 110.49 0.13 109.99 0.25 109.39 0.25L109.39 0.25Q108.34 0.25 107.79-0.18 107.24-0.6 107.24-1.55L107.24-1.55ZM144.59-11.35L127.79-9 127.59-12.15 142.69-14.2Q142.49-16.95 140.79-18.73 139.09-20.5 136.09-20.5L136.09-20.5Q132.99-20.5 130.96-18.28 128.94-16.05 128.94-11.9L128.94-11.9 128.94-10.8Q129.29-6.8 131.56-4.73 133.84-2.65 137.79-2.65L137.79-2.65Q139.89-2.65 141.59-3.35 143.29-4.05 144.29-4.85L144.29-4.85Q144.84-4.5 145.16-4.03 145.49-3.55 145.49-2.95L145.49-2.95Q145.49-2 144.41-1.18 143.34-0.35 141.56 0.15 139.79 0.65 137.59 0.65L137.59 0.65Q133.74 0.65 130.91-0.75 128.09-2.15 126.56-4.93 125.04-7.7 125.04-11.7L125.04-11.7Q125.04-14.55 125.86-16.78 126.69-19 128.16-20.55 129.64-22.1 131.69-22.93 133.74-23.75 136.14-23.75L136.14-23.75Q139.19-23.75 141.51-22.45 143.84-21.15 145.16-18.82 146.49-16.5 146.49-13.5L146.49-13.5Q146.49-12.4 145.99-11.93 145.49-11.45 144.59-11.35L144.59-11.35Z" opacity="1" transform="matrix(1,0,0,1,0,0)" fill="#398378" class="undefined-tk-0"></path></svg></g><g><svg xmlns="http://www.w3.org/2000/svg" xml:space="preserve" viewBox="7.795000000000004 0.0620000000000005 86.444 99.938" x="155.92849999999999" y="0" height="51.3715" width="44.43512924012888" class="icon-dxe-0" data-fill-palette-color="accent" id="dxe-0"><path d="M43.119 9.529l1.741 1.048v2.091l-4.879 2.788 3.022 1.687v1.973l-1.57 0.872-4.705-2.789-3.196 2.087 3.118 1.913-3.241 1.864 3.318 1.748 4.705-2.614 1.511 1.104v1.858l-2.963 1.684 4.705 2.732v2.207l-1.974 0.928-4.59-2.614v3.429l-1.684 0.931-1.627-0.931v-5.242l-3.37-1.987v3.683l-3.253-1.972v3.658l4.587 2.615v2.033l-1.547 0.813-3.04-1.741v5.576l-1.86 1.103-1.858-1.103v-5.576l-3.041 1.741-1.606-0.929V34.28l4.647-2.615v-3.658l-3.37 2.148v-3.893l-3.196 1.862v5.228l-1.742 1.105-1.454-0.988V29.98l-4.879 2.73-2.032-0.869v-2.266l5.053-2.732-3.137-1.626v-2.032l1.802-0.988 4.53 2.669 3.195-1.807-3.341-1.923 3.14-1.987-3.144-1.788-4.556 2.688-1.742-0.874v-1.973l3.137-1.744-4.938-2.674V10.58l1.855-0.989 4.882 2.813V8.839l1.505-0.993 1.866 0.997v5.382l3.196 1.871V12.26l3.37 1.86v-3.66l-4.647-2.614V5.929l1.606-0.931 3.041 1.744v-5.52l1.858-1.16 1.86 1.16v5.52l3.155-1.802 1.609 1.105v1.743l-4.764 2.672v3.659l3.253-1.975v3.952l3.37-1.802V8.543l1.568-0.755 1.742 0.755v3.66zM29.466 21.207l-1.511-2.613h-3.139l-1.567 2.613 1.687 2.441h3.078zM14.143 67.795l1.077 15.831 1.423-9.756 2.465 22.394 2.5-18.957 2.811 10.66-0.026-13.765-5.146-5.436zM93.962 100v-7.343h-52.53V67.014l52.53-27.308v-8.812L27.31 65.533v8.711l6.823-3.473V100z" fill="#31c48d" data-fill-palette-color="accent"></path><path d="M94.239 7.463c-3.821 1.259-11.272 4.02-16.754 7.979-7.687 5.55-7.485 9.754-16.709 16.425-3.534 2.555-11.211 3.541-16.077 6.477-6.708 4.05-8.408 8.725-11.426 10.562-4.019 2.449-11.488 3.424-15.693 7.777-4.019 4.158-5.574 15.296 0.891 18.488 2.117 1.046 4.144 0.391 5.921-0.97V63.647l69.847-36.298z" fill="#31c48d" data-fill-palette-color="accent"></path></svg></g><g transform="matrix(1,0,0,1,212.49212924012886,10.01075)"><svg width="127.65" viewBox="4.45 -30.65 127.64 31.349999999999998" height="31.349999999999998" data-palette-color="#398378"><path d="M4.45-1.6L4.45-18.1 8.55-18.1 8.55-0.1Q8.25 0 7.75 0.13 7.25 0.25 6.65 0.25L6.65 0.25Q5.55 0.25 5-0.2 4.45-0.65 4.45-1.6L4.45-1.6ZM8.55-28.8L8.55-14.75 4.45-14.75 4.45-30.3Q4.7-30.4 5.23-30.53 5.75-30.65 6.35-30.65L6.35-30.65Q7.45-30.65 8-30.23 8.55-29.8 8.55-28.8L8.55-28.8ZM24.15-1.6L24.15-18.1 28.25-18.1 28.25-0.1Q27.95 0 27.45 0.13 26.95 0.25 26.35 0.25L26.35 0.25Q25.25 0.25 24.7-0.2 24.15-0.65 24.15-1.6L24.15-1.6ZM28.25-28.8L28.25-14.75 24.15-14.75 24.15-30.3Q24.4-30.4 24.93-30.53 25.45-30.65 26.05-30.65L26.05-30.65Q27.15-30.65 27.7-30.23 28.25-29.8 28.25-28.8L28.25-28.8ZM26.3-17.1L26.3-13.7 6.9-13.7 6.9-17.1 26.3-17.1ZM44.7-2.6L44.7-2.6 44.7-2.6Q46.8-2.6 48.17-3.03 49.55-3.45 50.15-3.85L50.15-3.85 50.15-11.1 43.95-10.45Q41.35-10.25 40.1-9.3 38.85-8.35 38.85-6.55L38.85-6.55Q38.85-4.7 40.32-3.65 41.8-2.6 44.7-2.6ZM44.65-23.75L44.65-23.75 44.65-23.75Q49-23.75 51.55-21.8 54.1-19.85 54.1-15.65L54.1-15.65 54.1-3.8Q54.1-2.7 53.67-2.13 53.25-1.55 52.4-1.05L52.4-1.05Q51.2-0.4 49.2 0.15 47.2 0.7 44.7 0.7L44.7 0.7Q40 0.7 37.42-1.15 34.85-3 34.85-6.5L34.85-6.5Q34.85-9.75 37.02-11.48 39.2-13.2 43.05-13.55L43.05-13.55 50.15-14.25 50.15-15.65Q50.15-18.15 48.65-19.3 47.15-20.45 44.6-20.45L44.6-20.45Q42.55-20.45 40.67-19.85 38.8-19.25 37.35-18.5L37.35-18.5Q36.95-18.85 36.62-19.33 36.3-19.8 36.3-20.3L36.3-20.3Q36.3-21.6 37.75-22.3L37.75-22.3Q39.1-23 40.87-23.38 42.65-23.75 44.65-23.75ZM78.7-23.55L78.7-23.55 78.7-23.55Q79.55-23.55 80.07-23.1 80.6-22.65 80.6-21.8L80.6-21.8Q80.6-21.15 80.05-19.35 79.5-17.55 78.6-15.05 77.7-12.55 76.62-9.83 75.55-7.1 74.42-4.58 73.3-2.05 72.35-0.2L72.35-0.2Q72.1 0 71.47 0.15 70.85 0.3 70.15 0.3L70.15 0.3Q69.3 0.3 68.65 0.03 68-0.25 67.75-0.75L67.75-0.75Q67.2-1.75 66.32-3.68 65.45-5.6 64.45-8.05 63.45-10.5 62.42-13.13 61.4-15.75 60.55-18.18 59.7-20.6 59.15-22.45L59.15-22.45Q59.5-22.95 60.1-23.25 60.7-23.55 61.3-23.55L61.3-23.55Q62.2-23.55 62.7-23.1 63.2-22.65 63.55-21.6L63.55-21.6 66.65-12.65Q67.05-11.5 67.7-9.8 68.35-8.1 69-6.4 69.65-4.7 70.05-3.55L70.05-3.55 70.25-3.55Q72.25-8.6 74-13.53 75.75-18.45 77-23.15L77-23.15Q77.65-23.55 78.7-23.55ZM104.39-11.35L87.59-9 87.39-12.15 102.49-14.2Q102.29-16.95 100.59-18.73 98.89-20.5 95.89-20.5L95.89-20.5Q92.79-20.5 90.77-18.28 88.74-16.05 88.74-11.9L88.74-11.9 88.74-10.8Q89.09-6.8 91.37-4.73 93.64-2.65 97.59-2.65L97.59-2.65Q99.69-2.65 101.39-3.35 103.09-4.05 104.09-4.85L104.09-4.85Q104.64-4.5 104.97-4.03 105.29-3.55 105.29-2.95L105.29-2.95Q105.29-2 104.22-1.18 103.14-0.35 101.37 0.15 99.59 0.65 97.39 0.65L97.39 0.65Q93.54 0.65 90.72-0.75 87.89-2.15 86.37-4.93 84.84-7.7 84.84-11.7L84.84-11.7Q84.84-14.55 85.67-16.78 86.49-19 87.97-20.55 89.44-22.1 91.49-22.93 93.54-23.75 95.94-23.75L95.94-23.75Q98.99-23.75 101.32-22.45 103.64-21.15 104.97-18.82 106.29-16.5 106.29-13.5L106.29-13.5Q106.29-12.4 105.79-11.93 105.29-11.45 104.39-11.35L104.39-11.35ZM132.09-15.25L132.09-15.25 132.09-10.15 128.09-10.15 128.09-15.05Q128.09-17.85 126.52-19.15 124.94-20.45 122.29-20.45L122.29-20.45Q120.29-20.45 118.74-19.95 117.19-19.45 116.09-18.8L116.09-18.8 116.09-10.15 112.09-10.15 112.09-18.6Q112.09-19.65 112.52-20.33 112.94-21 113.99-21.65L113.99-21.65Q115.29-22.4 117.44-23.08 119.59-23.75 122.29-23.75L122.29-23.75Q126.84-23.75 129.47-21.68 132.09-19.6 132.09-15.25ZM112.09-1.55L112.09-12.9 116.09-12.9 116.09-0.1Q115.84 0 115.34 0.13 114.84 0.25 114.24 0.25L114.24 0.25Q113.19 0.25 112.64-0.18 112.09-0.6 112.09-1.55L112.09-1.55ZM128.09-1.55L128.09-12.9 132.09-12.9 132.09-0.1Q131.84 0 131.32 0.13 130.79 0.25 130.24 0.25L130.24 0.25Q129.14 0.25 128.62-0.18 128.09-0.6 128.09-1.55L128.09-1.55Z" opacity="1" transform="matrix(1,0,0,1,0,0)" fill="#398378" class="undefined-tk-1"></path></svg></g></svg></g></svg></g><g transform="matrix(1,0,0,1,140.4446851632492,58.7724826)"><svg viewBox="0 0 199.6974440768797 10.260163588620882" height="10.260163588620882" width="199.6974440768797"><g transform="matrix(1,0,0,1,0,0)"><svg width="199.6974440768797" viewBox="4.4 -32.75 650.99 33.45" height="10.260163588620882" data-palette-color="#398378"><path d="M16.2 0.65L16.2 0.65 16.2 0.65Q12.45 0.65 9.8-0.73 7.15-2.1 5.78-4.63 4.4-7.15 4.4-10.5L4.4-10.5 4.4-14.6 8.45-14.6 8.45-10.85Q8.45-6.85 10.68-4.83 12.9-2.8 16.2-2.8L16.2-2.8Q19.5-2.8 21.73-4.83 23.95-6.85 23.95-10.85L23.95-10.85 23.95-14.6 28.05-14.6 28.05-10.5Q28.05-7.15 26.68-4.63 25.3-2.1 22.65-0.73 20 0.65 16.2 0.65ZM8.45-28.8L8.45-12.55 4.4-12.55 4.4-30.3Q4.65-30.4 5.18-30.53 5.7-30.65 6.3-30.65L6.3-30.65Q7.4-30.65 7.93-30.23 8.45-29.8 8.45-28.8L8.45-28.8ZM28.05-28.8L28.05-12.55 23.95-12.55 23.95-30.3Q24.2-30.4 24.73-30.53 25.25-30.65 25.85-30.65L25.85-30.65Q26.95-30.65 27.5-30.23 28.05-29.8 28.05-28.8L28.05-28.8ZM56.2-15.25L56.2-15.25 56.2-10.15 52.2-10.15 52.2-15.05Q52.2-17.85 50.62-19.15 49.05-20.45 46.4-20.45L46.4-20.45Q44.4-20.45 42.85-19.95 41.3-19.45 40.2-18.8L40.2-18.8 40.2-10.15 36.2-10.15 36.2-18.6Q36.2-19.65 36.62-20.33 37.05-21 38.1-21.65L38.1-21.65Q39.4-22.4 41.55-23.08 43.7-23.75 46.4-23.75L46.4-23.75Q50.95-23.75 53.57-21.68 56.2-19.6 56.2-15.25ZM36.2-1.55L36.2-12.9 40.2-12.9 40.2-0.1Q39.95 0 39.45 0.13 38.95 0.25 38.35 0.25L38.35 0.25Q37.3 0.25 36.75-0.18 36.2-0.6 36.2-1.55L36.2-1.55ZM52.2-1.55L52.2-12.9 56.2-12.9 56.2-0.1Q55.95 0 55.42 0.13 54.9 0.25 54.35 0.25L54.35 0.25Q53.25 0.25 52.72-0.18 52.2-0.6 52.2-1.55L52.2-1.55ZM64.1-1.55L64.1-13.2 68.1-12.6 68.1-0.1Q67.85 0 67.35 0.13 66.85 0.25 66.25 0.25L66.25 0.25Q65.2 0.25 64.65-0.18 64.1-0.6 64.1-1.55L64.1-1.55ZM68.1-30.95L68.1-10.7 64.1-11.25 64.1-32.4Q64.35-32.5 64.87-32.63 65.4-32.75 65.95-32.75L65.95-32.75Q67.05-32.75 67.57-32.33 68.1-31.9 68.1-30.95L68.1-30.95ZM97.44-11.55L97.44-11.55 97.44-11.55Q97.44-7.85 96.04-5.1 94.64-2.35 92.09-0.85 89.54 0.65 86.09 0.65L86.09 0.65Q82.64 0.65 80.07-0.85 77.49-2.35 76.09-5.1 74.69-7.85 74.69-11.55L74.69-11.55Q74.69-15.3 76.12-18.03 77.54-20.75 80.12-22.25 82.69-23.75 86.09-23.75L86.09-23.75Q89.49-23.75 92.04-22.25 94.59-20.75 96.02-18.03 97.44-15.3 97.44-11.55ZM86.09-20.45L86.09-20.45 86.09-20.45Q82.74-20.45 80.77-18.07 78.79-15.7 78.79-11.55L78.79-11.55Q78.79-7.35 80.72-5 82.64-2.65 86.09-2.65L86.09-2.65Q89.49-2.65 91.42-5.03 93.34-7.4 93.34-11.55L93.34-11.55Q93.34-15.7 91.42-18.07 89.49-20.45 86.09-20.45ZM114.34-20.4L114.34-20.4 114.34-20.4Q110.94-20.4 108.69-18.1 106.44-15.8 106.44-11.5L106.44-11.5Q106.44-7.25 108.62-4.95 110.79-2.65 114.34-2.65L114.34-2.65Q116.44-2.65 117.84-3.23 119.24-3.8 120.34-4.55L120.34-4.55Q120.89-4.25 121.24-3.8 121.59-3.35 121.59-2.7L121.59-2.7Q121.59-1.3 119.52-0.33 117.44 0.65 114.34 0.65L114.34 0.65Q110.89 0.65 108.17-0.68 105.44-2 103.89-4.7 102.34-7.4 102.34-11.5L102.34-11.5Q102.34-15.55 103.94-18.28 105.54-21 108.27-22.38 110.99-23.75 114.24-23.75L114.24-23.75Q117.34-23.75 119.37-22.7 121.39-21.65 121.39-20.3L121.39-20.3Q121.39-19.7 121.04-19.25 120.69-18.8 120.14-18.55L120.14-18.55Q119.04-19.3 117.72-19.85 116.39-20.4 114.34-20.4ZM143.49-19.15L133.69-10.55 131.19-12.5 142.59-23.55Q143.79-23.5 144.46-22.98 145.14-22.45 145.14-21.6L145.14-21.6Q145.14-20.9 144.71-20.35 144.29-19.8 143.49-19.15L143.49-19.15ZM141.74-1.15L131.09-11.85 133.89-13.5 146.59-2.1Q146.49-1 145.91-0.35 145.34 0.3 144.39 0.3L144.39 0.3Q143.64 0.3 143.01-0.1 142.39-0.5 141.74-1.15L141.74-1.15ZM127.64-1.55L127.64-13.4 131.64-12.8 131.64-0.1Q131.39 0 130.89 0.13 130.39 0.25 129.79 0.25L129.79 0.25Q128.74 0.25 128.19-0.18 127.64-0.6 127.64-1.55L127.64-1.55ZM131.64-30.95L131.64-10.85 127.64-11.45 127.64-32.4Q127.89-32.5 128.41-32.63 128.94-32.75 129.54-32.75L129.54-32.75Q130.59-32.75 131.11-32.33 131.64-31.9 131.64-30.95L131.64-30.95ZM173.83-10.9L173.83-10.9 170.28-10.9Q168.88-13 167.36-15.33 165.83-17.65 164.36-20.05 162.88-22.45 161.56-24.78 160.23-27.1 159.18-29.1L159.18-29.1Q159.38-29.65 159.93-30.18 160.48-30.7 161.38-30.7L161.38-30.7Q162.33-30.7 162.86-30.2 163.38-29.7 163.93-28.7L163.93-28.7Q164.58-27.55 165.41-26.13 166.23-24.7 167.13-23.13 168.03-21.55 168.93-20 169.83-18.45 170.61-17.1 171.38-15.75 171.98-14.75L171.98-14.75 172.18-14.75Q173.93-17.65 175.38-20.25 176.83-22.85 178.18-25.35 179.53-27.85 180.83-30.35L180.83-30.35Q181.13-30.55 181.58-30.63 182.03-30.7 182.38-30.7L182.38-30.7Q183.33-30.7 183.81-30.25 184.28-29.8 184.28-29L184.28-29Q184.28-28.5 183.51-26.88 182.73-25.25 181.33-22.83 179.93-20.4 178.03-17.35 176.13-14.3 173.83-10.9ZM170.03-1.6L170.03-12.85 174.08-12.85 174.08-0.1Q173.83 0 173.31 0.13 172.78 0.25 172.23 0.25L172.23 0.25Q171.13 0.25 170.58-0.2 170.03-0.65 170.03-1.6L170.03-1.6ZM210.83-11.55L210.83-11.55 210.83-11.55Q210.83-7.85 209.43-5.1 208.03-2.35 205.48-0.85 202.93 0.65 199.48 0.65L199.48 0.65Q196.03 0.65 193.46-0.85 190.88-2.35 189.48-5.1 188.08-7.85 188.08-11.55L188.08-11.55Q188.08-15.3 189.51-18.03 190.93-20.75 193.51-22.25 196.08-23.75 199.48-23.75L199.48-23.75Q202.88-23.75 205.43-22.25 207.98-20.75 209.41-18.03 210.83-15.3 210.83-11.55ZM199.48-20.45L199.48-20.45 199.48-20.45Q196.13-20.45 194.16-18.07 192.18-15.7 192.18-11.55L192.18-11.55Q192.18-7.35 194.11-5 196.03-2.65 199.48-2.65L199.48-2.65Q202.88-2.65 204.81-5.03 206.73-7.4 206.73-11.55L206.73-11.55Q206.73-15.7 204.81-18.07 202.88-20.45 199.48-20.45ZM217.03-8.45L217.03-8.45 217.03-13 221.03-13 221.03-8.65Q221.03-5.45 222.73-4.05 224.43-2.65 227.43-2.65L227.43-2.65Q229.43-2.65 230.83-3.08 232.23-3.5 233.03-3.95L233.03-3.95 233.03-13 237.03-13 237.03-4.1Q237.03-3.05 236.75-2.43 236.48-1.8 235.43-1.2L235.43-1.2Q234.33-0.55 232.28 0.05 230.23 0.65 227.38 0.65L227.38 0.65Q224.08 0.65 221.75-0.33 219.43-1.3 218.23-3.33 217.03-5.35 217.03-8.45ZM237.03-21.5L237.03-10.4 233.03-10.4 233.03-23Q233.28-23.1 233.8-23.23 234.33-23.35 234.88-23.35L234.88-23.35Q235.98-23.35 236.5-22.93 237.03-22.5 237.03-21.5L237.03-21.5ZM221.03-21.5L221.03-10.4 217.03-10.4 217.03-23Q217.28-23.1 217.8-23.23 218.33-23.35 218.93-23.35L218.93-23.35Q219.98-23.35 220.5-22.93 221.03-22.5 221.03-21.5L221.03-21.5ZM248.53-18.8L248.53-18.8 248.53-10.9 244.53-10.9 244.53-18.5Q244.53-19.65 244.95-20.33 245.38-21 246.38-21.65L246.38-21.65Q247.68-22.5 249.93-23.13 252.18-23.75 254.93-23.75L254.93-23.75Q258.93-23.75 258.93-21.75L258.93-21.75Q258.93-21.25 258.78-20.83 258.63-20.4 258.38-20.1L258.38-20.1Q257.88-20.2 257.08-20.3 256.28-20.4 255.48-20.4L255.48-20.4Q253.18-20.4 251.43-19.93 249.68-19.45 248.53-18.8ZM244.53-1.55L244.53-13.2 248.53-12.6 248.53-0.1Q248.28 0 247.78 0.13 247.28 0.25 246.68 0.25L246.68 0.25Q245.63 0.25 245.08-0.18 244.53-0.6 244.53-1.55L244.53-1.55ZM295.62-15.55L295.62-15.55 295.62-15.55Q295.62-9.3 292.62-6.08 289.62-2.85 283.77-2.85L283.77-2.85Q282.32-2.85 280.95-2.95 279.57-3.05 278.37-3.35L278.37-3.35 278.37-27.15Q279.37-27.35 280.57-27.45 281.77-27.55 283.32-27.55L283.32-27.55Q286.72-27.55 289.5-26.33 292.27-25.1 293.95-22.48 295.62-19.85 295.62-15.55ZM299.77-15.55L299.77-15.55 299.77-15.55Q299.77-20.7 297.7-24.1 295.62-27.5 291.95-29.23 288.27-30.95 283.37-30.95L283.37-30.95Q281.42-30.95 279.47-30.8 277.52-30.65 275.97-30.15L275.97-30.15Q275.17-29.9 274.75-29.48 274.32-29.05 274.32-28.25L274.32-28.25 274.32-2.55Q274.32-0.9 276.42-0.25L276.42-0.25Q278.22 0.3 280.25 0.43 282.27 0.55 283.82 0.55L283.82 0.55Q288.67 0.55 292.25-1.2 295.82-2.95 297.8-6.53 299.77-10.1 299.77-15.55ZM310.22-18.8L310.22-18.8 310.22-10.9 306.22-10.9 306.22-18.5Q306.22-19.65 306.64-20.33 307.07-21 308.07-21.65L308.07-21.65Q309.37-22.5 311.62-23.13 313.87-23.75 316.62-23.75L316.62-23.75Q320.62-23.75 320.62-21.75L320.62-21.75Q320.62-21.25 320.47-20.83 320.32-20.4 320.07-20.1L320.07-20.1Q319.57-20.2 318.77-20.3 317.97-20.4 317.17-20.4L317.17-20.4Q314.87-20.4 313.12-19.93 311.37-19.45 310.22-18.8ZM306.22-1.55L306.22-13.2 310.22-12.6 310.22-0.1Q309.97 0 309.47 0.13 308.97 0.25 308.37 0.25L308.37 0.25Q307.32 0.25 306.77-0.18 306.22-0.6 306.22-1.55L306.22-1.55ZM343.57-11.35L326.77-9 326.57-12.15 341.67-14.2Q341.47-16.95 339.77-18.73 338.07-20.5 335.07-20.5L335.07-20.5Q331.97-20.5 329.94-18.28 327.92-16.05 327.92-11.9L327.92-11.9 327.92-10.8Q328.27-6.8 330.54-4.73 332.82-2.65 336.77-2.65L336.77-2.65Q338.87-2.65 340.57-3.35 342.27-4.05 343.27-4.85L343.27-4.85Q343.82-4.5 344.14-4.03 344.47-3.55 344.47-2.95L344.47-2.95Q344.47-2 343.39-1.18 342.32-0.35 340.54 0.15 338.77 0.65 336.57 0.65L336.57 0.65Q332.72 0.65 329.89-0.75 327.07-2.15 325.54-4.93 324.02-7.7 324.02-11.7L324.02-11.7Q324.02-14.55 324.84-16.78 325.67-19 327.14-20.55 328.62-22.1 330.67-22.93 332.72-23.75 335.12-23.75L335.12-23.75Q338.17-23.75 340.49-22.45 342.82-21.15 344.14-18.82 345.47-16.5 345.47-13.5L345.47-13.5Q345.47-12.4 344.97-11.93 344.47-11.45 343.57-11.35L343.57-11.35ZM359.51-2.6L359.51-2.6 359.51-2.6Q361.61-2.6 362.99-3.03 364.36-3.45 364.96-3.85L364.96-3.85 364.96-11.1 358.76-10.45Q356.16-10.25 354.91-9.3 353.66-8.35 353.66-6.55L353.66-6.55Q353.66-4.7 355.14-3.65 356.61-2.6 359.51-2.6ZM359.46-23.75L359.46-23.75 359.46-23.75Q363.81-23.75 366.36-21.8 368.91-19.85 368.91-15.65L368.91-15.65 368.91-3.8Q368.91-2.7 368.49-2.13 368.06-1.55 367.21-1.05L367.21-1.05Q366.01-0.4 364.01 0.15 362.01 0.7 359.51 0.7L359.51 0.7Q354.81 0.7 352.24-1.15 349.66-3 349.66-6.5L349.66-6.5Q349.66-9.75 351.84-11.48 354.01-13.2 357.86-13.55L357.86-13.55 364.96-14.25 364.96-15.65Q364.96-18.15 363.46-19.3 361.96-20.45 359.41-20.45L359.41-20.45Q357.36-20.45 355.49-19.85 353.61-19.25 352.16-18.5L352.16-18.5Q351.76-18.85 351.44-19.33 351.11-19.8 351.11-20.3L351.11-20.3Q351.11-21.6 352.56-22.3L352.56-22.3Q353.91-23 355.69-23.38 357.46-23.75 359.46-23.75ZM394.86-16L394.86-16 394.86-10.25 390.86-10.25 390.86-15.7Q390.86-18.15 389.44-19.3 388.01-20.45 385.66-20.45L385.66-20.45Q384.11-20.45 382.66-19.95 381.21-19.45 380.21-18.8L380.21-18.8 380.21-10.25 376.21-10.25 376.21-18.6Q376.21-19.6 376.64-20.3 377.06-21 378.11-21.65L378.11-21.65Q379.46-22.5 381.54-23.13 383.61-23.75 385.71-23.75L385.71-23.75Q388.26-23.75 390.21-22.98 392.16-22.2 393.11-20.85L393.11-20.85Q393.41-20.55 393.61-20.3 393.81-20.05 394.01-19.65L394.01-19.65Q394.36-19.05 394.61-18.1 394.86-17.15 394.86-16ZM409.51-15.9L409.51-15.9 409.51-10.25 405.51-10.25 405.51-15.7Q405.51-18.15 404.11-19.3 402.71-20.45 400.36-20.45L400.36-20.45Q398.61-20.45 396.99-19.73 395.36-19 394.06-17.65L394.06-17.65 392.46-20.55Q393.76-21.85 395.86-22.8 397.96-23.75 400.66-23.75L400.66-23.75Q403.36-23.75 405.34-22.9 407.31-22.05 408.41-20.3 409.51-18.55 409.51-15.9ZM376.21-1.55L376.21-12.9 380.21-12.9 380.21-0.1Q379.96 0 379.46 0.13 378.96 0.25 378.36 0.25L378.36 0.25Q377.31 0.25 376.76-0.18 376.21-0.6 376.21-1.55L376.21-1.55ZM390.86-1.55L390.86-12.9 394.86-12.9 394.86-0.1Q394.61 0 394.09 0.13 393.56 0.25 393.01 0.25L393.01 0.25Q391.91 0.25 391.39-0.18 390.86-0.6 390.86-1.55L390.86-1.55ZM405.51-1.55L405.51-12.9 409.51-12.9 409.51-0.1Q409.26 0 408.74 0.13 408.21 0.25 407.66 0.25L407.66 0.25Q406.56 0.25 406.04-0.18 405.51-0.6 405.51-1.55L405.51-1.55ZM427.71-1.6L427.71-18.1 431.81-18.1 431.81-0.1Q431.51 0 431.01 0.13 430.51 0.25 429.91 0.25L429.91 0.25Q428.81 0.25 428.26-0.2 427.71-0.65 427.71-1.6L427.71-1.6ZM431.81-28.8L431.81-14.75 427.71-14.75 427.71-30.3Q427.96-30.4 428.48-30.53 429.01-30.65 429.61-30.65L429.61-30.65Q430.71-30.65 431.26-30.23 431.81-29.8 431.81-28.8L431.81-28.8ZM447.41-1.6L447.41-18.1 451.51-18.1 451.51-0.1Q451.21 0 450.71 0.13 450.21 0.25 449.61 0.25L449.61 0.25Q448.51 0.25 447.96-0.2 447.41-0.65 447.41-1.6L447.41-1.6ZM451.51-28.8L451.51-14.75 447.41-14.75 447.41-30.3Q447.66-30.4 448.18-30.53 448.71-30.65 449.31-30.65L449.31-30.65Q450.41-30.65 450.96-30.23 451.51-29.8 451.51-28.8L451.51-28.8ZM449.56-17.1L449.56-13.7 430.16-13.7 430.16-17.1 449.56-17.1ZM481.15-11.55L481.15-11.55 481.15-11.55Q481.15-7.85 479.75-5.1 478.35-2.35 475.8-0.85 473.25 0.65 469.8 0.65L469.8 0.65Q466.35 0.65 463.78-0.85 461.2-2.35 459.8-5.1 458.4-7.85 458.4-11.55L458.4-11.55Q458.4-15.3 459.83-18.03 461.25-20.75 463.83-22.25 466.4-23.75 469.8-23.75L469.8-23.75Q473.2-23.75 475.75-22.25 478.3-20.75 479.73-18.03 481.15-15.3 481.15-11.55ZM469.8-20.45L469.8-20.45 469.8-20.45Q466.45-20.45 464.48-18.07 462.5-15.7 462.5-11.55L462.5-11.55Q462.5-7.35 464.43-5 466.35-2.65 469.8-2.65L469.8-2.65Q473.2-2.65 475.13-5.03 477.05-7.4 477.05-11.55L477.05-11.55Q477.05-15.7 475.13-18.07 473.2-20.45 469.8-20.45ZM506-16L506-16 506-10.25 502-10.25 502-15.7Q502-18.15 500.58-19.3 499.15-20.45 496.8-20.45L496.8-20.45Q495.25-20.45 493.8-19.95 492.35-19.45 491.35-18.8L491.35-18.8 491.35-10.25 487.35-10.25 487.35-18.6Q487.35-19.6 487.78-20.3 488.2-21 489.25-21.65L489.25-21.65Q490.6-22.5 492.68-23.13 494.75-23.75 496.85-23.75L496.85-23.75Q499.4-23.75 501.35-22.98 503.3-22.2 504.25-20.85L504.25-20.85Q504.55-20.55 504.75-20.3 504.95-20.05 505.15-19.65L505.15-19.65Q505.5-19.05 505.75-18.1 506-17.15 506-16ZM520.65-15.9L520.65-15.9 520.65-10.25 516.65-10.25 516.65-15.7Q516.65-18.15 515.25-19.3 513.85-20.45 511.5-20.45L511.5-20.45Q509.75-20.45 508.13-19.73 506.5-19 505.2-17.65L505.2-17.65 503.6-20.55Q504.9-21.85 507-22.8 509.1-23.75 511.8-23.75L511.8-23.75Q514.5-23.75 516.48-22.9 518.45-22.05 519.55-20.3 520.65-18.55 520.65-15.9ZM487.35-1.55L487.35-12.9 491.35-12.9 491.35-0.1Q491.1 0 490.6 0.13 490.1 0.25 489.5 0.25L489.5 0.25Q488.45 0.25 487.9-0.18 487.35-0.6 487.35-1.55L487.35-1.55ZM502-1.55L502-12.9 506-12.9 506-0.1Q505.75 0 505.23 0.13 504.7 0.25 504.15 0.25L504.15 0.25Q503.05 0.25 502.53-0.18 502-0.6 502-1.55L502-1.55ZM516.65-1.55L516.65-12.9 520.65-12.9 520.65-0.1Q520.4 0 519.88 0.13 519.35 0.25 518.8 0.25L518.8 0.25Q517.7 0.25 517.18-0.18 516.65-0.6 516.65-1.55L516.65-1.55ZM546.4-11.35L529.6-9 529.4-12.15 544.5-14.2Q544.3-16.95 542.6-18.73 540.9-20.5 537.9-20.5L537.9-20.5Q534.8-20.5 532.77-18.28 530.75-16.05 530.75-11.9L530.75-11.9 530.75-10.8Q531.1-6.8 533.37-4.73 535.65-2.65 539.6-2.65L539.6-2.65Q541.7-2.65 543.4-3.35 545.1-4.05 546.1-4.85L546.1-4.85Q546.65-4.5 546.97-4.03 547.3-3.55 547.3-2.95L547.3-2.95Q547.3-2 546.22-1.18 545.15-0.35 543.37 0.15 541.6 0.65 539.4 0.65L539.4 0.65Q535.55 0.65 532.72-0.75 529.9-2.15 528.37-4.93 526.85-7.7 526.85-11.7L526.85-11.7Q526.85-14.55 527.67-16.78 528.5-19 529.97-20.55 531.45-22.1 533.5-22.93 535.55-23.75 537.95-23.75L537.95-23.75Q541-23.75 543.32-22.45 545.65-21.15 546.97-18.82 548.3-16.5 548.3-13.5L548.3-13.5Q548.3-12.4 547.8-11.93 547.3-11.45 546.4-11.35L546.4-11.35ZM564.79-1.55L564.79-26.95 568.19-27.25Q568.39-25.7 568.54-23.6 568.69-21.5 568.77-19.28 568.84-17.05 568.84-15.05L568.84-15.05 568.84-0.1Q568.59 0 568.07 0.13 567.54 0.25 566.99 0.25L566.99 0.25Q565.89 0.25 565.34-0.18 564.79-0.6 564.79-1.55L564.79-1.55ZM588.89-28.85L588.89-3.45 585.44-3.15Q584.94-7.35 584.87-11.73 584.79-16.1 584.79-20.2L584.79-20.2 584.79-30.3Q585.09-30.4 585.59-30.53 586.09-30.65 586.69-30.65L586.69-30.65Q587.79-30.65 588.34-30.23 588.89-29.8 588.89-28.85L588.89-28.85ZM585.14-4L588.89-4.95 588.89-5.15 588.89-0.55Q588.44-0.2 587.74 0.05 587.04 0.3 586.19 0.3L586.19 0.3Q584.99 0.3 584.14-0.18 583.29-0.65 582.59-1.9L582.59-1.9 573.09-17.9Q572.34-19.25 571.44-20.88 570.54-22.5 569.74-23.98 568.94-25.45 568.49-26.4L568.49-26.4 564.79-25.45 564.79-29.8Q565.19-30.2 565.92-30.45 566.64-30.7 567.49-30.7L567.49-30.7Q568.69-30.7 569.54-30.23 570.39-29.75 571.09-28.5L571.09-28.5 580.64-12.5Q581.44-11.15 582.32-9.53 583.19-7.9 583.94-6.43 584.69-4.95 585.14-4L585.14-4ZM618.54-11.55L618.54-11.55 618.54-11.55Q618.54-7.85 617.14-5.1 615.74-2.35 613.19-0.85 610.64 0.65 607.19 0.65L607.19 0.65Q603.74 0.65 601.16-0.85 598.59-2.35 597.19-5.1 595.79-7.85 595.79-11.55L595.79-11.55Q595.79-15.3 597.21-18.03 598.64-20.75 601.21-22.25 603.79-23.75 607.19-23.75L607.19-23.75Q610.59-23.75 613.14-22.25 615.69-20.75 617.11-18.03 618.54-15.3 618.54-11.55ZM607.19-20.45L607.19-20.45 607.19-20.45Q603.84-20.45 601.86-18.07 599.89-15.7 599.89-11.55L599.89-11.55Q599.89-7.35 601.81-5 603.74-2.65 607.19-2.65L607.19-2.65Q610.59-2.65 612.51-5.03 614.44-7.4 614.44-11.55L614.44-11.55Q614.44-15.7 612.51-18.07 610.59-20.45 607.19-20.45ZM639.29-17.2L639.29-17.2 639.29-17.2Q638.39-14.05 637.36-10.9 636.34-7.75 635.39-5 634.44-2.25 633.64-0.25L633.64-0.25Q633.24 0 632.74 0.15 632.24 0.3 631.39 0.3L631.39 0.3Q630.59 0.3 629.91 0.03 629.24-0.25 628.99-0.85L628.99-0.85Q628.49-1.85 627.86-3.75 627.24-5.65 626.56-8.1 625.89-10.55 625.19-13.18 624.49-15.8 623.91-18.25 623.34-20.7 622.94-22.6L622.94-22.6Q623.29-22.95 623.81-23.25 624.34-23.55 625.09-23.55L625.09-23.55Q626.04-23.55 626.51-23.03 626.99-22.5 627.19-21.35L627.19-21.35Q627.64-19.25 628.21-16.6 628.79-13.95 629.41-11.35 630.04-8.75 630.56-6.68 631.09-4.6 631.34-3.6L631.34-3.6 631.54-3.6Q631.94-4.8 632.79-7.53 633.64-10.25 634.81-13.75 635.99-17.25 637.19-20.85L637.19-20.85Q637.59-21.1 638.14-21.23 638.69-21.35 639.34-21.35L639.34-21.35Q640.24-21.35 640.84-21.03 641.44-20.7 641.64-20.05L641.64-20.05Q642.84-16.6 643.89-13.28 644.94-9.95 645.74-7.38 646.54-4.8 646.89-3.55L646.89-3.55 647.14-3.55Q648.29-8 649.64-13.1 650.99-18.2 651.84-23.1L651.84-23.1Q652.54-23.55 653.54-23.55L653.54-23.55Q654.39-23.55 654.89-23.15 655.39-22.75 655.39-21.9L655.39-21.9Q655.39-21.35 655.06-19.8 654.74-18.25 654.19-16.15 653.64-14.05 652.96-11.68 652.29-9.3 651.59-7.08 650.89-4.85 650.26-3.05 649.64-1.25 649.19-0.25L649.19-0.25Q648.94-0.05 648.36 0.13 647.79 0.3 647.04 0.3L647.04 0.3Q644.99 0.3 644.64-0.65L644.64-0.65Q643.94-2.45 643.04-5.13 642.14-7.8 641.19-10.93 640.24-14.05 639.29-17.2Z" opacity="1" transform="matrix(1,0,0,1,0,0)" fill="#398378" class="slogan-text-1" data-fill-palette-color="secondary" id="text-1"></path></svg></g></svg></g></svg></g></svg></g></svg></g><defs></defs></svg><rect width="340.1421292401289" height="69.03264618862087" fill="none" stroke="none" visibility="hidden"></rect></g></svg></g></svg>